<svg width="22" height="21" viewBox="0 0 22 21" fill="none" xmlns="http://www.w3.org/2000/svg">
    <path
        d="M0 20.7648L11 0L22 20.7648H0ZM11 17.4861C11.2833 17.4861 11.521 17.3812 11.713 17.1714C11.905 16.9615 12.0007 16.7022 12 16.3932C12 16.0836 11.904 15.8238 11.712 15.614C11.52 15.4042 11.2827 15.2996 11 15.3003C10.7167 15.3003 10.479 15.4053 10.287 15.6151C10.095 15.8249 9.99933 16.0843 10 16.3932C10 16.7029 10.096 16.9626 10.288 17.1725C10.48 17.3823 10.7173 17.4868 11 17.4861ZM10 14.2075H12V8.74306H10V14.2075Z"
        fill="#E02B20" />
</svg>